<?xml version="1.0" standalone="no"?>
<!DOCTYPE svg PUBLIC "-//W3C//DTD SVG 20010904//EN"
 "http://www.w3.org/TR/2001/REC-SVG-20010904/DTD/svg10.dtd">
<svg version="1.0" xmlns="http://www.w3.org/2000/svg"
 width="225.000000pt" height="225.000000pt" viewBox="0 0 225.000000 225.000000"
 preserveAspectRatio="xMidYMid meet">
<metadata>
Created by potrace 1.14, written by Peter Selinger 2001-2017
</metadata>
<g transform="translate(0.000000,225.000000) scale(0.100000,-0.100000)"
fill="#000000" stroke="none">
<path d="M2012 2015 c2 -5 21 -46 42 -89 21 -44 39 -84 40 -90 2 -6 8 -31 15
-56 48 -165 47 -433 0 -557 -6 -16 -11 -30 -11 -33 0 -3 -4 -15 -9 -28 -5 -13
-9 -26 -9 -29 0 -12 -82 -170 -100 -193 -15 -19 -13 -9 10 40 25 56 44 115 66
205 3 11 8 70 11 132 12 216 -43 408 -167 588 -47 67 -47 66 -3 -25 27 -55 44
-102 71 -200 2 -8 6 -74 7 -145 4 -149 -12 -240 -65 -365 -188 -442 -712 -646
-1147 -445 -323 149 -519 465 -508 817 4 124 38 258 87 347 l21 36 -26 -30
c-31 -35 -98 -169 -120 -240 -64 -200 -59 -430 12 -614 11 -31 15 -48 7 -40
-15 17 -86 173 -92 203 -2 12 -11 54 -20 95 -18 80 -23 238 -12 341 11 96 59
252 98 318 26 43 25 52 0 19 -11 -14 -20 -28 -20 -31 0 -3 -15 -29 -33 -58
-46 -76 -63 -112 -93 -203 -28 -86 -30 -92 -48 -205 -13 -78 -14 -202 -2 -305
31 -273 204 -574 426 -739 30 -22 57 -44 58 -48 2 -5 8 -8 13 -8 5 0 30 -13
57 -30 150 -92 363 -148 562 -148 300 0 580 116 791 327 139 140 233 297 284
476 36 124 37 131 41 300 5 207 -24 338 -113 520 -35 71 -139 234 -121 190z"/>
<path d="M754 1739 c-101 -19 -225 -113 -273 -207 -24 -47 -21 -51 17 -23 30
21 102 44 102 32 0 -4 -11 -34 -23 -67 -58 -148 -74 -277 -44 -356 32 -83 83
-101 282 -102 80 0 225 11 232 18 2 2 12 33 22 69 11 36 22 74 26 86 6 19 3
20 -42 13 -26 -4 -101 -6 -166 -6 -146 1 -156 7 -137 83 l12 50 135 3 136 3
12 35 c7 20 16 50 20 68 l7 33 -131 -3 c-127 -3 -131 -2 -125 17 10 32 45 85
57 87 7 0 80 2 162 4 83 1 153 3 157 3 6 1 45 116 39 116 -1 0 2 13 8 28 l11
28 -228 -2 c-125 -1 -245 -5 -268 -10z"/>
<path d="M1329 1721 c-5 -13 -11 -31 -13 -40 -2 -9 -6 -23 -9 -31 -17 -41
-100 -334 -111 -392 -23 -118 -3 -177 72 -211 41 -18 66 -21 202 -21 134 -1
236 6 245 16 4 4 35 104 44 143 l8 31 -84 -12 c-47 -6 -119 -9 -161 -8 -64 3
-80 7 -95 25 -23 28 -20 42 59 307 35 117 64 214 64 215 0 2 -48 3 -106 3
-103 -1 -107 -2 -115 -25z"/>
</g>
</svg>
